<svg xmlns="http://www.w3.org/2000/svg" width="207.438" height="207.438" viewBox="0 0 207.438 207.438"><defs><style>.a{fill:#fff;}.b{fill:#002970;}.c{fill:#00baf2;}</style></defs><g transform="translate(-616 -4582.582)"><rect class="a" width="207.438" height="207.438" rx="42" transform="translate(616 4582.582)"/><g transform="translate(615.999 4582.386)"><g transform="translate(27.614 52.614)"><g transform="translate(0.275 74.563)"><path class="b" d="M64.16,123.161h7.974q5.45,0,7.912,1.551a5.4,5.4,0,0,1,2.462,4.933,6.223,6.223,0,0,1-1.077,3.768,4.31,4.31,0,0,1-2.866,1.77v.176a5.643,5.643,0,0,1,3.514,2.032,6.622,6.622,0,0,1,1.078,3.961,6.525,6.525,0,0,1-2.532,5.467,10.945,10.945,0,0,1-6.878,1.964H64.16Zm5.433,10.147h3.155a5.765,5.765,0,0,0,3.2-.684,2.548,2.548,0,0,0,.99-2.26,2.263,2.263,0,0,0-1.077-2.111,6.923,6.923,0,0,0-3.409-.64H69.593Zm0,4.311V144.3h3.54a5.248,5.248,0,0,0,3.311-.859,3.169,3.169,0,0,0,1.07-2.629q0-3.188-4.557-3.189Z" transform="translate(-64.16 -121.515)"/><path class="b" d="M102.458,148.967l-.72-2.506h-.28a5.626,5.626,0,0,1-2.435,2.111,8.313,8.313,0,0,1-3.592.745,6.842,6.842,0,0,1-5.2-1.848,7.443,7.443,0,0,1-1.752-5.319V129.375h5.345v11.443A5.5,5.5,0,0,0,94.571,144a2.741,2.741,0,0,0,2.4,1.059,3.608,3.608,0,0,0,3.242-1.5,9.285,9.285,0,0,0,1-4.968v-9.217h5.346v19.592Z" transform="translate(-64.886 -121.7)"/><path class="b" d="M126.526,143.138a5.391,5.391,0,0,1-2.095,4.591q-2.093,1.578-6.264,1.577a19.727,19.727,0,0,1-3.645-.289,13.8,13.8,0,0,1-2.821-.85v-4.416a18.592,18.592,0,0,0,3.356,1.174,13.539,13.539,0,0,0,3.286.473q2.909,0,2.909-1.682a1.4,1.4,0,0,0-.386-1.025,5.562,5.562,0,0,0-1.331-.894q-.946-.5-2.523-1.165a15.859,15.859,0,0,1-3.321-1.752,4.934,4.934,0,0,1-1.543-1.849,6.107,6.107,0,0,1-.481-2.568,4.654,4.654,0,0,1,2.024-4.039A9.862,9.862,0,0,1,119.429,129a16.306,16.306,0,0,1,6.887,1.542l-1.613,3.855q-1.471-.63-2.751-1.034a8.663,8.663,0,0,0-2.611-.4q-2.366,0-2.365,1.28a1.5,1.5,0,0,0,.763,1.244,20.72,20.72,0,0,0,3.337,1.559,15.538,15.538,0,0,1,3.365,1.737,5.128,5.128,0,0,1,1.576,1.857A5.7,5.7,0,0,1,126.526,143.138Z" transform="translate(-65.578 -121.689)"/><path class="b" d="M131.048,124.075q0-2.611,2.909-2.611t2.909,2.611a2.546,2.546,0,0,1-.728,1.936,3.055,3.055,0,0,1-2.182.693Q131.047,126.7,131.048,124.075Zm5.573,24.656h-5.346V129.139h5.346Z" transform="translate(-66.157 -121.464)"/><path class="b" d="M160.657,148.956h-5.346V137.513a5.507,5.507,0,0,0-.753-3.181,2.743,2.743,0,0,0-2.4-1.059,3.609,3.609,0,0,0-3.242,1.5,9.3,9.3,0,0,0-1,4.968v9.217h-5.346V129.364h4.083l.718,2.506h.3a5.652,5.652,0,0,1,2.462-2.147A8.393,8.393,0,0,1,153.7,129a6.852,6.852,0,0,1,5.187,1.849,7.422,7.422,0,0,1,1.77,5.336Z" transform="translate(-66.5 -121.689)"/><path class="b" d="M175.715,149.306a10.113,10.113,0,0,1-7.4-2.611q-2.663-2.611-2.663-7.4,0-4.923,2.461-7.614a8.768,8.768,0,0,1,6.808-2.69,8.627,8.627,0,0,1,6.466,2.366,8.946,8.946,0,0,1,2.314,6.536v2.593H171.07a5.15,5.15,0,0,0,1.35,3.558,4.747,4.747,0,0,0,3.54,1.279,14.691,14.691,0,0,0,3.347-.368,16.78,16.78,0,0,0,3.295-1.173v4.135a12.51,12.51,0,0,1-3,1.042A18.8,18.8,0,0,1,175.715,149.306Zm-.754-16.508a3.385,3.385,0,0,0-2.663,1.079,4.985,4.985,0,0,0-1.1,3.057h7.5a4.455,4.455,0,0,0-1.034-3.057A3.5,3.5,0,0,0,174.961,132.8Z" transform="translate(-67.19 -121.689)"/><path class="b" d="M202.373,143.138a5.394,5.394,0,0,1-2.095,4.591q-2.094,1.578-6.264,1.577a19.729,19.729,0,0,1-3.645-.289,13.8,13.8,0,0,1-2.821-.85v-4.416a18.566,18.566,0,0,0,3.356,1.174,13.539,13.539,0,0,0,3.285.473q2.909,0,2.91-1.682a1.4,1.4,0,0,0-.386-1.025,5.6,5.6,0,0,0-1.331-.894q-.946-.5-2.524-1.165a15.869,15.869,0,0,1-3.32-1.752,4.933,4.933,0,0,1-1.543-1.849,6.106,6.106,0,0,1-.481-2.568,4.654,4.654,0,0,1,2.024-4.039A9.859,9.859,0,0,1,195.276,129a16.305,16.305,0,0,1,6.886,1.542l-1.612,3.855q-1.473-.63-2.751-1.034a8.668,8.668,0,0,0-2.611-.4q-2.366,0-2.366,1.28a1.5,1.5,0,0,0,.763,1.244,20.743,20.743,0,0,0,3.338,1.559,15.562,15.562,0,0,1,3.365,1.737,5.128,5.128,0,0,1,1.576,1.857A5.711,5.711,0,0,1,202.373,143.138Z" transform="translate(-67.842 -121.689)"/><path class="b" d="M220.761,143.138a5.394,5.394,0,0,1-2.095,4.591q-2.094,1.578-6.264,1.577a19.728,19.728,0,0,1-3.645-.289,13.826,13.826,0,0,1-2.822-.85v-4.416a18.591,18.591,0,0,0,3.356,1.174,13.552,13.552,0,0,0,3.286.473q2.909,0,2.908-1.682a1.405,1.405,0,0,0-.385-1.025,5.6,5.6,0,0,0-1.331-.894q-.947-.5-2.524-1.165a15.882,15.882,0,0,1-3.321-1.752,4.943,4.943,0,0,1-1.543-1.849,6.107,6.107,0,0,1-.481-2.568,4.656,4.656,0,0,1,2.024-4.039A9.863,9.863,0,0,1,213.663,129a16.307,16.307,0,0,1,6.887,1.542l-1.612,3.855q-1.473-.63-2.751-1.034a8.67,8.67,0,0,0-2.612-.4q-2.366,0-2.365,1.28a1.5,1.5,0,0,0,.763,1.244,20.742,20.742,0,0,0,3.338,1.559,15.528,15.528,0,0,1,3.364,1.737,5.109,5.109,0,0,1,1.577,1.857A5.7,5.7,0,0,1,220.761,143.138Z" transform="translate(-68.391 -121.689)"/></g><rect class="b" width="52.79" height="3.714" transform="translate(0 63.153)"/><rect class="c" width="52.79" height="3.714" transform="translate(0 59.602)"/><rect class="b" width="52.79" height="3.714" transform="translate(99.768 63.153)"/><rect class="c" width="52.79" height="3.714" transform="translate(99.768 59.602)"/><g transform="translate(0.203)"><path class="c" d="M218.712,58.859a10.109,10.109,0,0,0-9.54-6.766h-.091a10.077,10.077,0,0,0-7.29,3.107,10.075,10.075,0,0,0-7.288-3.107h-.091a10.073,10.073,0,0,0-6.592,2.448v-.773a1.488,1.488,0,0,0-1.481-1.384h-6.762a1.5,1.5,0,0,0-1.494,1.5V90.61a1.494,1.494,0,0,0,1.494,1.5h6.762a1.494,1.494,0,0,0,1.476-1.293l0-26.362c0-.089,0-.178.01-.265a2.466,2.466,0,0,1,2.332-2.264h1.25a2.592,2.592,0,0,1,1.425.551,2.488,2.488,0,0,1,.918,1.978l.025,26.234a1.5,1.5,0,0,0,1.495,1.5h6.762a1.5,1.5,0,0,0,1.489-1.425l-.006-26.339a2.475,2.475,0,0,1,1.1-2.113,2.669,2.669,0,0,1,1.243-.418H207.1a2.473,2.473,0,0,1,2.342,2.531l.027,26.2a1.494,1.494,0,0,0,1.494,1.5h6.762a1.5,1.5,0,0,0,1.5-1.5V62.438a9.5,9.5,0,0,0-.512-3.579" transform="translate(-67.489 -44.83)"/><path class="c" d="M172.187,52.259H168.32V45.991h0l0-.012a1.367,1.367,0,0,0-1.365-1.373,1.222,1.222,0,0,0-.257.029c-4.291,1.175-3.428,7.115-11.259,7.622h-.762a1.469,1.469,0,0,0-.327.038h0a1.5,1.5,0,0,0-1.166,1.454v6.764a1.5,1.5,0,0,0,1.495,1.5h4.082l0,28.675a1.479,1.479,0,0,0,1.476,1.481h6.686a1.481,1.481,0,0,0,1.479-1.481l0-28.675h3.787a1.494,1.494,0,0,0,1.493-1.5V53.751a1.492,1.492,0,0,0-1.493-1.492" transform="translate(-66.745 -44.607)"/><path class="b" d="M146.952,52.494h-6.762a1.5,1.5,0,0,0-1.5,1.492V67.973a1.582,1.582,0,0,1-1.581,1.56h-2.833a1.584,1.584,0,0,1-1.583-1.585l-.029-13.961a1.494,1.494,0,0,0-1.495-1.492h-6.76a1.494,1.494,0,0,0-1.5,1.492V69.312a9.6,9.6,0,0,0,9.976,9.97s4.371,0,4.505.027a1.575,1.575,0,0,1,.019,3.129c-.035.006-.072.014-.113.019l-9.891.037a1.5,1.5,0,0,0-1.494,1.5v6.76a1.5,1.5,0,0,0,1.494,1.5h11.057a9.6,9.6,0,0,0,9.976-9.972V53.986a1.493,1.493,0,0,0-1.5-1.492" transform="translate(-65.842 -44.842)"/><path class="b" d="M80.334,52.492H65.552a1.466,1.466,0,0,0-1.466,1.468v6.622a.089.089,0,0,0,0,.025c0,.047,0,.078,0,.111V90.7a1.458,1.458,0,0,0,1.367,1.5h6.89a1.5,1.5,0,0,0,1.5-1.495l.025-10.28h6.47a8.776,8.776,0,0,0,9.189-9.192V61.7a8.789,8.789,0,0,0-9.189-9.206M79.74,64.885v4.173a1.586,1.586,0,0,1-1.583,1.586l-4.293,0V62.282h4.293a1.585,1.585,0,0,1,1.583,1.586Z" transform="translate(-64.086 -44.842)"/><path class="b" d="M107.578,52.532H98.2a1.459,1.459,0,0,0-1.5,1.4v2.628l.006.053c0,.017-.006.035-.006.035v3.624a1.545,1.545,0,0,0,1.595,1.486l8.934,0a1.549,1.549,0,0,1,1.344,1.429v.87a1.5,1.5,0,0,1-1.307,1.39h-4.423c-5.886,0-10.08,3.91-10.08,9.4V82.72c0,5.457,3.6,9.34,9.447,9.34h12.266a3.858,3.858,0,0,0,3.983-3.719V62.684c0-6.223-3.208-10.152-10.873-10.152m1.078,28.229v1.056a1.3,1.3,0,0,1-.029.249,1.181,1.181,0,0,1-.062.219v0a1.579,1.579,0,0,1-1.5,1.017h-2.813a1.543,1.543,0,0,1-1.593-1.487V80.541l0-.047,0-3.4V76.03a1.545,1.545,0,0,1,1.593-1.481h2.813a1.547,1.547,0,0,1,1.6,1.489Z" transform="translate(-64.942 -44.844)"/></g><path class="b" d="M-.013-3.214H-2.221v-.745c0-.753.3-1.194,1.209-1.194a3.422,3.422,0,0,1,.991.159L.522-7.31a8.12,8.12,0,0,0-2.178-.3A3.339,3.339,0,0,0-5.3-4.017v.8h-1.57V-.9H-5.3V7.9h3.083V-.9H-.013ZM6.7,8.119c3.372,0,5.471-2.309,5.471-5.732,0-3.445-2.1-5.746-5.471-5.746s-5.471,2.3-5.471,5.746C1.233,5.811,3.331,8.119,6.7,8.119Zm.014-2.388c-1.556,0-2.352-1.426-2.352-3.365s.8-3.372,2.352-3.372c1.527,0,2.323,1.433,2.323,3.372S8.245,5.731,6.718,5.731ZM14.39,7.9h3.083V1.613A2.244,2.244,0,0,1,19.832-.7a5.185,5.185,0,0,1,1.3.166V-3.264a4.627,4.627,0,0,0-.97-.109,2.7,2.7,0,0,0-2.67,2.1h-.116V-3.214H14.39Z" transform="translate(69.509 60.799)"/></g></g></g></svg>